<svg width="960" height="960" viewBox="0 0 960 960" fill="none" xmlns="http://www.w3.org/2000/svg">
<rect x="700.11" width="259.889" height="245" rx="40" fill="#FF4C4C" style="fill:#FF4C4C;fill:color(display-p3 1.0000 0.2980 0.2980);fill-opacity:1;"/>
<rect x="717.61" y="347.5" width="224.889" height="210" rx="38.5" stroke="#96C2DB" style="stroke:#96C2DB;stroke:color(display-p3 0.5882 0.7608 0.8588);stroke-opacity:1;" stroke-width="35"/>
<rect y="660" width="318.232" height="300" rx="40" fill="#EEB858" style="fill:#EEB858;fill:color(display-p3 0.9333 0.7216 0.3451);fill-opacity:1;"/>
<path d="M129.493 572.795C129.493 572.795 116.672 420.366 381.335 239.743C381.335 239.743 236.64 371.025 179.861 482.924C179.861 482.924 380.419 507.594 467.419 327.852C467.419 327.852 526.03 242.386 515.04 82.028C515.04 82.028 94.6928 155.158 130.409 425.653C130.409 425.653 133.156 441.072 126.059 457.812C118.961 474.553 96.9823 516.405 83.9323 574.997H31.4015C31.4015 574.997 0.128933 575.856 0.128933 546.296C0.128933 516.736 0.128933 32.9007 0.128933 32.9007C0.128933 32.9007 -4.03436 0.0548419 34.9544 0.0548419C73.9433 0.0548419 571.54 0.0548419 571.54 0.0548419C571.54 0.0548419 609.945 -2.6714 609.945 30.3194C609.945 63.3103 609.945 544.977 609.945 544.977C609.945 544.977 609.67 574.008 573.46 574.008C537.25 574.008 130.706 574.008 130.706 574.008C130.706 574.008 129.446 573.989 129.493 572.795Z" fill="#50A796" style="fill:#50A796;fill:color(display-p3 0.3137 0.6549 0.5882);fill-opacity:1;"/>
<rect x="425.898" y="677.5" width="516.602" height="265" rx="38.5" stroke="#3C97C6" style="stroke:#3C97C6;stroke:color(display-p3 0.2353 0.5922 0.7765);stroke-opacity:1;" stroke-width="35"/>
</svg>
