<svg width="1137" height="1156" viewBox="0 0 1137 1156" fill="none" xmlns="http://www.w3.org/2000/svg">
<rect x="821.21" width="297.79" height="230.964" rx="40" fill="#FF4C4C" style="fill:#FF4C4C;fill:color(display-p3 1.0000 0.2980 0.2980);fill-opacity:1;"/>
<rect x="838.71" y="328.594" width="262.79" height="195.964" rx="38.5" stroke="#96C2DB" style="stroke:#96C2DB;stroke:color(display-p3 0.5882 0.7608 0.8588);stroke-opacity:1;" stroke-width="35"/>
<rect x="19" y="622.188" width="364.641" height="282.812" rx="40" fill="#EEB858" style="fill:#EEB858;fill:color(display-p3 0.9333 0.7216 0.3451);fill-opacity:1;"/>
<path d="M167.377 539.978C167.377 539.978 152.686 396.283 455.946 226.008C455.946 226.008 290.15 349.769 225.091 455.256C225.091 455.256 454.897 478.513 554.584 309.069C554.584 309.069 621.742 228.5 609.15 77.3285C609.15 77.3285 127.502 146.269 168.427 401.266C168.427 401.266 171.574 415.802 163.442 431.584C155.31 447.365 130.126 486.819 115.172 542.055H54.9809C54.9809 542.055 19.1477 542.864 19.1477 514.998C19.1477 487.132 19.1477 31.0158 19.1477 31.0158C19.1477 31.0158 14.3773 0.0516999 59.0519 0.0516999C103.727 0.0516999 673.889 0.0516999 673.889 0.0516999C673.889 0.0516999 717.895 -2.51835 717.895 28.5824C717.895 59.6831 717.895 513.754 717.895 513.754C717.895 513.754 717.581 541.123 676.09 541.123C634.599 541.123 168.767 541.123 168.767 541.123C168.767 541.123 167.323 541.104 167.377 539.978Z" fill="#50A796" style="fill:#50A796;fill:color(display-p3 0.3137 0.6549 0.5882);fill-opacity:1;"/>
<rect x="504.456" y="639.688" width="597.044" height="247.812" rx="38.5" stroke="#3C97C6" style="stroke:#3C97C6;stroke:color(display-p3 0.2353 0.5922 0.7765);stroke-opacity:1;" stroke-width="35"/>
<path d="M20.3438 1100V932H121.078V950.047H40.6875V1006.81H113.531V1024.86H40.6875V1100H20.3438ZM174.401 1100V932H194.745V1081.95H272.838V1100H174.401ZM458.026 1016C458.026 1033.72 454.827 1049.03 448.429 1061.94C442.03 1074.84 433.253 1084.8 422.097 1091.8C410.94 1098.8 398.198 1102.3 383.87 1102.3C369.542 1102.3 356.8 1098.8 345.644 1091.8C334.487 1084.8 325.71 1074.84 319.312 1061.94C312.913 1049.03 309.714 1033.72 309.714 1016C309.714 998.281 312.913 982.969 319.312 970.062C325.71 957.156 334.487 947.203 345.644 940.203C356.8 933.203 369.542 929.703 383.87 929.703C398.198 929.703 410.94 933.203 422.097 940.203C433.253 947.203 442.03 957.156 448.429 970.062C454.827 982.969 458.026 998.281 458.026 1016ZM438.339 1016C438.339 1001.45 435.905 989.176 431.038 979.168C426.226 969.16 419.69 961.586 411.433 956.445C403.23 951.305 394.042 948.734 383.87 948.734C373.698 948.734 364.483 951.305 356.226 956.445C348.022 961.586 341.487 969.16 336.62 979.168C331.808 989.176 329.401 1001.45 329.401 1016C329.401 1030.55 331.808 1042.82 336.62 1052.83C341.487 1062.84 348.022 1070.41 356.226 1075.55C364.483 1080.7 373.698 1083.27 383.87 1083.27C394.042 1083.27 403.23 1080.7 411.433 1075.55C419.69 1070.41 426.226 1062.84 431.038 1052.83C435.905 1042.82 438.339 1030.55 438.339 1016ZM510.713 1100V932H567.479C580.604 932 591.378 934.242 599.799 938.727C608.221 943.156 614.456 949.254 618.503 957.02C622.549 964.785 624.573 973.617 624.573 983.516C624.573 993.414 622.549 1002.19 618.503 1009.85C614.456 1017.5 608.249 1023.52 599.881 1027.89C591.514 1032.21 580.823 1034.38 567.807 1034.38H521.87V1016H567.151C576.12 1016 583.338 1014.69 588.807 1012.06C594.331 1009.44 598.323 1005.72 600.784 1000.91C603.299 996.039 604.557 990.242 604.557 983.516C604.557 976.789 603.299 970.91 600.784 965.879C598.268 960.848 594.249 956.965 588.725 954.23C583.202 951.441 575.901 950.047 566.823 950.047H531.057V1100H510.713ZM589.792 1024.53L631.135 1100H607.51L566.823 1024.53H589.792ZM697.296 932V1100H676.952V932H697.296ZM866.816 932H887.16V1043.23C887.16 1054.72 884.453 1064.97 879.039 1074C873.679 1082.96 866.105 1090.05 856.316 1095.24C846.527 1100.38 835.043 1102.95 821.863 1102.95C808.683 1102.95 797.199 1100.38 787.41 1095.24C777.621 1090.05 770.019 1082.96 764.605 1074C759.246 1064.97 756.566 1054.72 756.566 1043.23V932H776.91V1041.59C776.91 1049.8 778.714 1057.1 782.324 1063.5C785.933 1069.84 791.074 1074.84 797.746 1078.51C804.472 1082.12 812.511 1083.92 821.863 1083.92C831.214 1083.92 839.254 1082.12 845.98 1078.51C852.707 1074.84 857.847 1069.84 861.402 1063.5C865.011 1057.1 866.816 1049.8 866.816 1041.59V932ZM946.266 932H970.547L1027.64 1071.45H1029.61L1086.7 932H1110.98V1100H1091.95V972.359H1090.31L1037.81 1100H1019.44L966.938 972.359H965.297V1100H946.266V932Z" fill="#0A1828" style="fill:#0A1828;fill:color(display-p3 0.0392 0.0941 0.1569);fill-opacity:1;"/>
</svg>
